SplineFontDB: 3.0
FontName: WalbaumSMLDisplay14-Italic
FullName: Walbaum (Sorts Mill) Display 14-point Italic
FamilyName: WalbaumSMLDisplay14
Weight: Book
Copyright: Copyright (c) 2009 Barry Schwartz\n\nPermission is hereby granted, free of charge, to any person\nobtaining a copy of this software and associated documentation\nfiles (the "Software"), to deal in the Software without\nrestriction, including without limitation the rights to use,\ncopy, modify, merge, publish, distribute, sublicense, and/or sell\ncopies of the Software, and to permit persons to whom the\nSoftware is furnished to do so, subject to the following\nconditions:\n\nThe above copyright notice and this permission notice shall be\nincluded in all copies or substantial portions of the Software.\n\nTHE SOFTWARE IS PROVIDED "AS IS", WITHOUT WARRANTY OF ANY KIND,\nEXPRESS OR IMPLIED, INCLUDING BUT NOT LIMITED TO THE WARRANTIES\nOF MERCHANTABILITY, FITNESS FOR A PARTICULAR PURPOSE AND\nNONINFRINGEMENT. IN NO EVENT SHALL THE AUTHORS OR COPYRIGHT\nHOLDERS BE LIABLE FOR ANY CLAIM, DAMAGES OR OTHER LIABILITY,\nWHETHER IN AN ACTION OF CONTRACT, TORT OR OTHERWISE, ARISING\nFROM, OUT OF OR IN CONNECTION WITH THE SOFTWARE OR THE USE OR\nOTHER DEALINGS IN THE SOFTWARE.
UComments: "2009-7-28: Created." 
Version: 001.000
ItalicAngle: -12
UnderlinePosition: -204
UnderlineWidth: 102
Ascent: 1472
Descent: 576
LayerCount: 3
Layer: 0 0 "Back"  1
Layer: 1 0 "Fore"  0
Layer: 2 0 "backup"  1
NeedsXUIDChange: 1
XUID: [1021 658 797806517 12611104]
FSType: 0
OS2Version: 0
OS2_WeightWidthSlopeOnly: 0
OS2_UseTypoMetrics: 1
CreationTime: 1248824893
ModificationTime: 1249176689
OS2TypoAscent: 0
OS2TypoAOffset: 1
OS2TypoDescent: 0
OS2TypoDOffset: 1
OS2TypoLinegap: 184
OS2WinAscent: 0
OS2WinAOffset: 1
OS2WinDescent: 0
OS2WinDOffset: 1
HheadAscent: 0
HheadAOffset: 1
HheadDescent: 0
HheadDOffset: 1
OS2Vendor: 'PfEd'
DEI: 91125
Encoding: UnicodeBmp
UnicodeInterp: none
NameList: Adobe Glyph List
DisplaySize: -72
AntiAlias: 1

StartChar: y
Encoding: 121 121 0
Width: 1264
VWidth: 0
Flags: W
HStem: -629 43<-18.7874 133.9> 685 214<1064.82 1217.33> 762 118<228.441 469>
VStem: -181 177<-566.924 -402.4> 36 50<434.248 540.044>
LayerCount: 3
Fore
SplineSet
-181 -482 m 0xb8
 -181 -429 -138 -386 -90 -386 c 0
 -37 -386 -4 -458 -4 -500 c 0
 -4 -525 -7 -545 -20 -568 c 1
 0 -582 24 -586 49 -586 c 0
 257 -586 466 -208 466 13 c 0
 466 185 400 762 262 762 c 0
 160 762 90 470 86 458 c 0
 82 448 78 434 64 434 c 0
 57 434 36 439 36 456 c 0
 36 464 122 880 348 880 c 0xb8
 590 880 584 459 619 239 c 9
 765 460 832 595 994 805 c 16
 1035 858 1068 899 1133 899 c 0
 1215 899 1238 839 1238 796 c 0
 1238 729 1184 685 1144 685 c 0xd8
 1094 685 1074 726 1027 762 c 1
 608 206 559 -31 530 -97 c 0
 354 -507 220 -629 14 -629 c 0
 -86 -629 -181 -600 -181 -482 c 0xb8
EndSplineSet
Validated: 1
Layer: 2
SplineSet
-181 -482 m 4xb8
 -181 -429 -138 -386 -90 -386 c 4
 -37 -386 -4 -458 -4 -500 c 4
 -4 -525 -7 -545 -20 -568 c 5
 0 -582 24 -586 49 -586 c 4
 257 -586 466 -208 466 13 c 4
 466 185 400 762 262 762 c 4
 160 762 90 470 86 458 c 4
 82 448 78 434 64 434 c 4
 57 434 36 439 36 456 c 4
 36 464 122 880 348 880 c 4xb8
 590 880 584 459 619 239 c 13
 765 460 832 595 994 805 c 20
 1035 858 1068 899 1133 899 c 4
 1215 899 1238 839 1238 796 c 4
 1238 729 1184 685 1144 685 c 4xd8
 1094 685 1074 726 1027 762 c 5
 608 206 559 -31 530 -97 c 4
 354 -507 220 -629 14 -629 c 4
 -86 -629 -181 -600 -181 -482 c 4xb8
EndSplineSet
EndChar

StartChar: Q
Encoding: 81 81 1
Width: 1593
VWidth: 0
Flags: W
HStem: -634 54<814.334 1108> -48 58<469.606 776.47> 1500 50<813.598 1091.41>
VStem: 82 214<313.466 678.395> 1300 205<810.332 1218.68>
LayerCount: 3
Fore
SplineSet
82 569 m 0
 82 941 425 1550 931 1550 c 0
 1389 1550 1505 1240 1505 952 c 0
 1505 809 1463 588 1397 466 c 0
 1216 124 950 -48 652 -48 c 0
 591 -48 534 -44 468 -38 c 9
 545 -110 596 -142 664 -222 c 0
 765 -341 717 -450 812 -558 c 16
 830 -578 854 -580 883 -580 c 2
 1108 -580 l 9
 1108 -634 l 17
 875 -634 l 2
 418 -634 519 -150 415 -36 c 0
 391 -8 368 12 346 29 c 0
 345 30 82 169 82 569 c 0
296 358 m 0
 296 96 412 10 588 10 c 0
 774 10 935 80 1037 216 c 0
 1185 412 1300 978 1300 1074 c 0
 1300 1466 1077 1500 953 1500 c 0
 815 1500 696 1438 599 1332 c 0
 490 1213 296 665 296 358 c 0
EndSplineSet
Validated: 1
EndChar

StartChar: O
Encoding: 79 79 2
Width: 1545
VWidth: 0
Flags: W
HStem: -32 46<574.291 864.477> 1493 35<885.881 1134.72>
VStem: 161 225<295.146 669.917> 1375 195<852.754 1209.76>
LayerCount: 3
Fore
SplineSet
161 540 m 0
 161 893 498 1528 1008 1528 c 0
 1416 1528 1570 1249 1570 973 c 0
 1570 337 1021 -32 728 -32 c 0
 622 -32 161 26 161 540 c 0
386 352 m 0
 386 90 547 14 709 14 c 0
 895 14 983 80 1085 216 c 0
 1233 412 1375 951 1375 1138 c 0
 1375 1400 1183 1493 1020 1493 c 0
 826 1493 666 1445 487 883 c 0
 429 701 386 504 386 352 c 0
EndSplineSet
Validated: 1
EndChar

StartChar: A
Encoding: 65 65 3
Width: 1694
VWidth: 0
Flags: W
HStem: 0 54<72 216 296 576 824 1058 1268 1500> 636 54<864 1226>
LayerCount: 3
Fore
SplineSet
72 0 m 25
 72 54 l 25
 216 54 l 17
 1417 1375 1535 1502 1584 1502 c 0
 1591 1502 1606 1498 1606 1482 c 0
 1606 1399 1555 1192 1268 54 c 9
 1500 54 l 25
 1500 0 l 17
 824 0 l 9
 824 54 l 25
 1058 54 l 25
 1226 636 l 25
 821 636 l 25
 296 54 l 25
 576 54 l 25
 576 0 l 25
 72 0 l 25
864 690 m 9
 1242 690 l 17
 1423 1306 l 1
 864 690 l 9
EndSplineSet
Validated: 1
EndChar

StartChar: x
Encoding: 120 120 4
Width: 1236
VWidth: 0
Flags: W
HStem: -43 72<212 312.284 692.786 859.755> 652 226<318 648 1134.99 1251.49> 821 57<508.164 665.699>
VStem: 62 177<23.5448 187.042> 510 168<40.4914 136> 1108 164<662.053 811.609>
LayerCount: 3
Fore
SplineSet
62 94 m 0xdc
 62 161 106 205 166 205 c 0
 208 205 239 159 239 119 c 0
 239 63 212 23 212 23 c 1
 271 23 385 65 504 211 c 0
 545 260 685 556 685 722 c 0
 685 781 665 821 610 821 c 0xbc
 502 821 406 748 341 670 c 0
 334 662 326 652 318 652 c 0
 313 652 298 658 298 668 c 0
 298 700 446 878 648 878 c 0
 815 878 850 703 850 703 c 1
 972 836 1094 877 1158 877 c 0
 1217 877 1272 850 1272 749 c 0
 1272 685 1258 642 1198 642 c 0
 1146 642 1122 691 1108 812 c 1
 1006 790 915 713 878 648 c 0
 776 474 678 159 678 106 c 0
 678 46 739 29 758 29 c 0
 906 29 1069 192 1088 192 c 0
 1101 192 1116 177 1116 166 c 0
 1116 143 894 -43 703 -43 c 0
 511 -43 510 131 510 136 c 1
 510 136 356 -31 211 -31 c 0
 137 -31 62 18 62 94 c 0xdc
EndSplineSet
Validated: 1
EndChar

StartChar: z
Encoding: 122 122 5
Width: 1045
VWidth: 0
Flags: W
HStem: -31 73<556.5 863.42> 64 122<233.112 514.856> 707 165<275.359 758>
VStem: 176 71<524.269 590> 845 175<110.75 269.182>
LayerCount: 3
Fore
SplineSet
65 -1 m 0
 65 6 70 15 85 31 c 2
 758 707 l 1
 311 707 l 2
 289 707 290 705 280 677 c 2
 247 590 l 2
 231 547 226 524 209 524 c 0
 198 524 176 532 176 546 c 0
 176 558 187 579 200 617 c 2
 280 841 l 2
 290 870 300 872 317 872 c 0
 515 872 713 872 911 872 c 0
 934 872 932 870 942 848 c 0
 944 842 947 839 947 834 c 0
 947 824 936 814 902 779 c 2
 283 155 l 1
 329 163 367 186 428 186 c 0
 600 186 665 42 760 42 c 0
 867 42 905 97 905 97 c 1
 905 97 845 131 845 203 c 0
 845 244 883 284 929 284 c 0
 957 284 1020 260 1020 187 c 0
 1020 87 901 -31 653 -31 c 0
 460 -31 405 64 271 64 c 0
 164 64 123 -31 96 -31 c 0
 83 -31 65 -11 65 -1 c 0
EndSplineSet
Validated: 1
EndChar

StartChar: w
Encoding: 119 119 6
Width: 1533
VWidth: 0
Flags: W
HStem: -32 58<256.685 406.568 827.669 990.029> 818 54<49.0092 254>
VStem: 94 144<36.2409 323.196> 658 153<34.6563 243.529> 864 175<803 867.108> 1459 79<492.98 764>
LayerCount: 3
Fore
SplineSet
49 844 m 0
 49 868 61 872 73 872 c 2
 407 872 l 2
 425 872 432 870 432 857 c 0
 432 807 238 225 238 107 c 0
 238 59 273 26 329 26 c 0
 406 26 520 85 636 241 c 0
 680 300 716 381 751 481 c 2
 864 803 l 2
 881 852 883 869 930 869 c 2
 998 869 l 2
 1024 869 1039 868 1039 846 c 0
 1039 836 1037 822 1030 803 c 2
 955 587 l 2
 835 238 811 166 811 107 c 0
 811 55 836 28 900 28 c 0
 1150 28 1459 330 1459 580 c 0
 1459 675 1296 691 1296 779 c 0
 1296 837 1341 866 1393 866 c 0
 1460 866 1538 816 1538 712 c 0
 1538 340 1210 -23 852 -23 c 0
 689 -23 658 60 658 125 c 0
 658 166 670 198 670 198 c 1
 670 198 490 -32 269 -32 c 0
 132 -32 94 45 94 137 c 0
 94 221 125 316 142 380 c 2
 229 719 l 2
 237 753 247 786 254 818 c 1
 71 818 l 2
 52 818 49 832 49 844 c 0
EndSplineSet
Validated: 1
Layer: 2
SplineSet
432 856.799804688 m 4
 432 806.400390625 237.599609375 224.400390625 237.599609375 106.799804688 c 4
 237.599609375 58.7998046875 272.400390625 26.400390625 328.799804688 26.400390625 c 4
 405.599609375 26.400390625 519.599609375 85.2001953125 636 241.200195312 c 4
 680.400390625 300 716.400390625 381.599609375 751.200195312 481.200195312 c 6
 864 802.799804688 l 6
 880.799804688 852 883.200195312 868.799804688 930 868.799804688 c 6
 998.400390625 868.799804688 l 6
 1024.79980469 868.799804688 1039.20019531 867.599609375 1039.20019531 846 c 4
 1039.20019531 836.400390625 1036.79980469 822 1029.59960938 802.799804688 c 6
 955.200195312 586.799804688 l 6
 835.200195312 237.599609375 811.200195312 165.599609375 811.200195312 106.799804688 c 4
 811.200195312 55.2001953125 836.400390625 27.599609375 900 27.599609375 c 4
 1149.59960938 27.599609375 1459.20019531 330 1459.20019531 579.599609375 c 4
 1459.20019531 674.400390625 1296 691.200195312 1296 778.799804688 c 4
 1296 836.400390625 1341.59960938 866.400390625 1393.20019531 866.400390625 c 4
 1460.40039062 866.400390625 1538.40039062 816 1538.40039062 711.599609375 c 4
 1538.40039062 339.599609375 1209.59960938 -22.7998046875 852 -22.7998046875 c 4
 688.799804688 -22.7998046875 657.599609375 60 657.599609375 124.799804688 c 4
 657.599609375 165.599609375 669.599609375 198 669.599609375 198 c 5
 669.599609375 198 489.599609375 -32.400390625 268.799804688 -32.400390625 c 4
 132 -32.400390625 93.599609375 44.400390625 93.599609375 136.799804688 c 4
 93.599609375 220.799804688 124.799804688 316.799804688 141.599609375 380.400390625 c 6
 229.200195312 718.799804688 l 6
 237.599609375 752.400390625 247.200195312 786 254.400390625 818.400390625 c 5
 73.2001953125 818.400390625 l 6
 54 818.400390625 49.2001953125 831.599609375 49.2001953125 843.599609375 c 4
 49.2001953125 867.599609375 66 872.400390625 73.2001953125 872.400390625 c 6
 406.799804688 872.400390625 l 6
 424.799804688 872.400390625 432 870 432 856.799804688 c 4
EndSplineSet
EndChar

StartChar: v
Encoding: 118 118 7
Width: 1159
VWidth: 0
Flags: W
HStem: -30 58<430.45 613.945> 798 86<334.941 524>
VStem: 247 168<35.3111 266.462> 420 194<634.426 834.177> 1039 97<464.698 729>
LayerCount: 3
Fore
SplineSet
92 605 m 0
 92 639 272 884 494 884 c 0
 554 884 614 864 614 799 c 0
 614 745 415 160 415 107 c 0
 415 55 440 28 504 28 c 0
 754 28 1039 316 1039 539 c 0
 1039 684 888 667 888 780 c 0
 888 840 939 869 980 869 c 0
 1062 869 1136 778 1136 680 c 0
 1136 555 1044 162 677 19 c 0
 598 -12 515 -30 443 -30 c 0
 331 -30 247 14 247 124 c 0
 247 201 420 678 420 745 c 0
 420 774 409 798 391 798 c 0
 288 798 173 666 130 608 c 0
 119 594 112 589 106 589 c 0
 102 589 92 593 92 605 c 0
EndSplineSet
Validated: 1
EndChar

StartChar: u
Encoding: 117 117 8
Width: 1240
VWidth: 0
Flags: W
HStem: -28 68<209.497 417.857 797.024 933.33> 818 54<70.0147 277>
VStem: 114 144<46.7479 308.137> 686 173<14.5606 262.207> 897 176<703.269 870.365>
LayerCount: 3
Fore
SplineSet
70 844 m 0
 70 868 84 872 91 872 c 2
 409 872 l 2
 435 872 442 865 442 853 c 0
 442 803 258 184 258 107 c 0
 258 59 293 40 349 40 c 0
 512 40 668 223 715 306 c 0
 795 451 897 805 897 806 c 0
 911 858 916 872 963 872 c 2
 1032 872 l 2
 1058 872 1073 871 1073 849 c 0
 1073 802 859 212 859 103 c 0
 859 67 868 47 890 47 c 0
 922 47 1007 93 1093 196 c 0
 1128 238 1130 252 1142 252 c 0
 1154 252 1166 238 1166 230 c 0
 1166 198 996 -30 796 -30 c 0
 732 -30 686 -3 686 47 c 0
 686 102 722 179 730 241 c 1
 603 75 406 -28 269 -28 c 0
 153 -28 114 35 114 127 c 0
 114 199 138 289 162 380 c 2
 252 719 l 2
 260 753 270 786 277 818 c 1
 91 818 l 2
 72 818 70 832 70 844 c 0
EndSplineSet
Validated: 1
Layer: 2
SplineSet
70 844 m 4
 70 868 87 872 94 872 c 6
 409 872 l 6
 435 872 442 865 442 853 c 4
 442 803 258 184 258 107 c 4
 258 59 293 40 349 40 c 4
 512 40 668 223 715 306 c 4
 795 451 896 802 896 803 c 4
 910 855 915 869 962 869 c 6
 1031 869 l 6
 1057 869 1072 868 1072 846 c 4
 1072 799 859 212 859 103 c 4
 859 67 868 47 890 47 c 4
 922 47 1007 93 1093 196 c 4
 1128 238 1130 252 1142 252 c 4
 1154 252 1166 238 1166 230 c 4
 1166 198 996 -30 796 -30 c 4
 732 -30 686 -3 686 47 c 4
 686 102 722 179 730 241 c 5
 603 75 406 -28 269 -28 c 4
 153 -28 114 35 114 127 c 4
 114 199 138 289 162 380 c 6
 252 719 l 6
 260 753 270 786 277 818 c 5
 94 818 l 6
 75 818 70 832 70 844 c 4
EndSplineSet
EndChar

StartChar: t
Encoding: 116 116 9
Width: 715
VWidth: 0
Flags: W
HStem: -18 54<178 355.773> 818 54<109.401 307 487 693.541>
VStem: 94 163<36.8778 280.892>
LayerCount: 3
Back
SplineSet
94 84 m 4
 94 136 114 204 140 289 c 6
 307 818 l 5
 272 818 153 812 140 812 c 4
 116 812 109 817 109 835 c 4
 109 875 122 881 157 881 c 4
 164 881 283 872 324 872 c 5
 414 1141 l 6
 425 1173 444 1174 480 1174 c 6
 544 1174 l 6
 564 1174 581 1173 581 1156 c 4
 581 1152 580 1147 578 1141 c 6
 487 872 l 5
 547 872 650 880 660 880 c 4
 686 880 694 874 694 858 c 4
 694 814 670 812 650 812 c 4
 640 812 538 818 470 818 c 5
 392 570 l 6
 324 350 257 158 257 88 c 4
 257 51 272 36 296 36 c 4
 356 36 479 125 598 234 c 4
 602 238 606 239 610 239 c 4
 621 239 630 228 630 216 c 4
 630 211 629 207 624 202 c 4
 521 105 386 -18 228 -18 c 4
 128 -18 94 23 94 84 c 4
EndSplineSet
Fore
SplineSet
94 84 m 0
 94 136 114 204 140 289 c 2
 307 818 l 1
 133 818 l 2
 114 818 109 819 109 835 c 0
 109 875 122 871 157 872 c 1
 324 872 l 1
 414 1141 l 2
 425 1173 444 1174 480 1174 c 2
 544 1174 l 2
 564 1174 581 1173 581 1156 c 0
 581 1152 580 1147 578 1141 c 2
 487 872 l 1
 664 872 l 2
 686 872 694 870 694 855 c 0
 694 818 681 818 661 818 c 2
 470 818 l 1
 392 570 l 1
 324 350 257 158 257 88 c 0
 257 51 272 36 296 36 c 0
 356 36 479 125 598 234 c 0
 602 238 606 239 610 239 c 0
 621 239 630 228 630 216 c 0
 630 211 629 207 624 202 c 0
 521 105 386 -18 228 -18 c 0
 128 -18 94 23 94 84 c 0
EndSplineSet
Validated: 1
Layer: 2
SplineSet
94 84 m 4
 94 136 114 204 140 289 c 6
 307 818 l 5
 272 818 153 812 140 812 c 4
 116 812 109 817 109 835 c 4
 109 875 122 881 157 881 c 4
 164 881 283 872 324 872 c 5
 414 1141 l 6
 425 1173 444 1174 480 1174 c 6
 544 1174 l 6
 564 1174 581 1173 581 1156 c 4
 581 1152 580 1147 578 1141 c 6
 487 872 l 5
 547 872 650 880 660 880 c 4
 686 880 694 874 694 858 c 4
 694 814 670 812 650 812 c 4
 640 812 538 818 470 818 c 5
 392 570 l 6
 324 350 257 158 257 88 c 4
 257 51 272 36 296 36 c 4
 356 36 479 125 598 234 c 4
 602 238 606 239 610 239 c 4
 621 239 630 228 630 216 c 4
 630 211 629 207 624 202 c 4
 521 105 386 -18 228 -18 c 4
 128 -18 94 23 94 84 c 4
EndSplineSet
EndChar

StartChar: a
Encoding: 97 97 10
Width: 1186
VWidth: 0
Flags: W
HStem: -30 32<280.9 414.862> 850 40<588.531 715.091>
VStem: 79 159<70.772 362.803> 688 159<64.9281 255.174> 803 44<643 740.628>
LayerCount: 3
Fore
SplineSet
79 259 m 0xf0
 79 588 405 890 629 890 c 0
 840 890 842 654 842 643 c 1
 939 879 915 890 980 890 c 2
 1038 890 l 2
 1063 890 1078 889 1078 869 c 0
 1078 822 847 271 847 120 c 0
 847 79 866 64 892 64 c 0
 1002 64 1119 254 1130 264 c 0
 1134 268 1140 270 1142 270 c 0
 1149 270 1160 264 1160 253 c 0
 1160 237 1016 -18 778 -18 c 0
 706 -18 688 30 688 83 c 0
 688 119 696 150 701 190 c 1
 701 190 537 -30 314 -30 c 0
 132 -30 79 119 79 259 c 0xf0
238 126 m 0
 238 37 279 2 338 2 c 0
 439 2 591 105 677 223 c 8
 778 360 803 598 803 641 c 0xe8
 803 727 755 850 655 850 c 0
 463 850 238 377 238 126 c 0
EndSplineSet
Validated: 1
EndChar

StartChar: b
Encoding: 98 98 11
Width: 1113
VWidth: 0
Flags: W
HStem: -48 47<350.374 536.744> 876 58<692.487 884.278> 1418 54<299.284 520>
VStem: 140 164<35.1715 318.475> 930 161<536.888 809.184>
LayerCount: 3
Fore
SplineSet
140 125 m 0
 140 215 267 588 312 726 c 0
 353 853 379 933 520 1418 c 1
 319 1418 l 2
 301 1418 299 1426 299 1434 c 2
 299 1439 l 2
 299 1470 315 1472 328 1472 c 2
 647 1472 l 2
 667 1472 676 1469 676 1457 c 0
 676 1447 671 1432 664 1409 c 2
 488 788 l 1
 488 788 662 934 835 934 c 0
 992 934 1091 795 1091 644 c 0
 1091 273 738 -48 451 -48 c 0
 311 -48 140 12 140 125 c 0
304 158 m 0
 304 31 355 -1 434 -1 c 0
 679 -1 807 326 844 418 c 0
 909 579 930 672 930 733 c 0
 930 833 872 876 794 876 c 0
 693 876 560 804 472 686 c 0
 418 615 304 232 304 158 c 0
EndSplineSet
Validated: 1
EndChar

StartChar: c
Encoding: 99 99 12
Width: 912
VWidth: 0
Flags: HW
HStem: -42 53<306.108 518.656> 873 51<501.848 694.148>
VStem: 58 175<113.235 495.059> 736 131<607.732 829.063>
LayerCount: 3
Fore
SplineSet
736 766 m 0
 736 830 684 873 607 873 c 0
 492 872 433 809 375 720 c 0
 277 570 233 349 233 247 c 0
 233 115 266 11 403 11 c 0
 602 11 709 194 734 194 c 0
 742 194 757 184 757 167 c 0
 757 132 563 -42 400 -42 c 0
 156 -42 58 116 58 305 c 0
 58 582 274 924 592 924 c 0
 748 924 867 836 867 711 c 0
 867 660 850 603 799 603 c 0
 743 603 732 656 732 684 c 0
 732 702 736 747 736 766 c 0
EndSplineSet
EndChar

StartChar: d
Encoding: 100 100 13
Width: 1181
VWidth: -20
Flags: HW
HStem: -39 74<754.715 906.212> -22 53<265.755 450.644> 884 58<516.105 696.863> 1418 54<756.061 1011>
VStem: 59 151<102.356 414.552> 661 152<36.3152 253.781>
LayerCount: 3
Fore
SplineSet
585 942 m 0x7c
 709 942 792 853 823 757 c 9
 1011 1418 l 17
 782 1418 l 2
 772 1418 756 1418 756 1438 c 2
 756 1443 l 2
 756 1457 761 1472 779 1472 c 2
 1134 1472 l 6
 1155 1472 1167 1470 1167 1453 c 0
 1167 1388 813 247 813 117 c 0
 813 60 834 35 866 35 c 0
 963 35 1103 239 1108 246 c 0
 1116 258 1127 265 1138 265 c 0
 1147 265 1158 254 1158 244 c 0
 1158 228 982 -39 772 -39 c 0xbc
 690 -39 661 19 661 77 c 0
 661 130 677 182 677 182 c 1
 571 47 436 -22 333 -22 c 0
 170 -22 59 100 59 266 c 0
 59 570 290 942 585 942 c 0x7c
608 884 m 0
 430 884 320 596 286 507 c 0
 246 401 210 291 210 208 c 0
 210 80 269 31 347 31 c 0x7c
 479 31 666 174 709 339 c 0
 711 348 800 652 800 688 c 0
 800 776 715 884 608 884 c 0
EndSplineSet
EndChar

StartChar: e
Encoding: 101 101 14
Width: 854
VWidth: 0
Flags: W
HStem: -33 70<298.518 486.458> 828 63<534.595 697.686>
VStem: 76 172<78.3207 391.486> 716 114<648.845 819.209>
LayerCount: 3
Fore
SplineSet
780 229 m 0
 780 195 558 -33 323 -33 c 0
 188 -33 76 10 76 219 c 0
 76 562 385 891 674 891 c 0
 779 891 830 831 830 760 c 0
 830 540 429 451 282 390 c 1
 282 390 248 324 248 210 c 0
 248 80 323 37 390 37 c 0
 522 37 665 169 720 224 c 0
 738 242 745 251 758 251 c 0
 769 251 780 242 780 229 c 0
630 828 m 0
 424 828 295 450 295 450 c 1
 295 450 716 578 716 744 c 0
 716 776 696 828 630 828 c 0
EndSplineSet
Validated: 1
EndChar

StartChar: f
Encoding: 102 102 15
Width: 880
VWidth: 0
Flags: W
HStem: -577 43<-286.364 -103.629> 818 54<97.0613 362 552 825.829> 1508 48<807.037 922.982>
VStem: -432 178<-506.985 -316.181> 362 182<640.567 818 872 1008> 928 150<1321.13 1498.85>
LayerCount: 3
Fore
SplineSet
-195 -577 m 0
 -265 -577 -432 -545 -432 -420 c 0
 -432 -339 -385 -300 -340 -300 c 0
 -297 -300 -254 -336 -254 -403 c 0
 -254 -487 -294 -507 -294 -507 c 1
 -294 -507 -270 -534 -190 -534 c 0
 136 -534 254 179 362 818 c 1
 123 818 l 2
 102 818 97 820 97 842 c 0
 97 856 99 872 123 872 c 2
 373 872 l 1
 380.5546875 908.515625 428.466796875 1170.16699219 560.932617188 1359 c 0
 638.872070312 1470.10449219 747.313517237 1556 884 1556 c 0
 1032 1556 1078 1448 1078 1398 c 0
 1078 1352 1044 1310 1008 1310 c 0
 921 1310 932 1448 928 1508 c 1
 741.310312534 1508 662.302734375 1381.77832031 618.296875 1228 c 0
 584.751953125 1110.77734375 564 976 552 872 c 1
 801 872 l 2
 826 872 826 862 826 851 c 0
 826 837 824 818 801 818 c 2
 544 818 l 1
 394 146 330 -73 187 -297 c 0
 177 -313 34 -577 -195 -577 c 0
EndSplineSet
Validated: 1
EndChar

StartChar: g
Encoding: 103 103 16
Width: 1262
VWidth: 0
Flags: W
HStem: -595 50<249.297 562.048> -29 190<266.964 825.248> 297 51<488.806 643.309> 371 43<231.552 313> 816 75<1042.56 1170.5> 852 53<602.69 766.446>
VStem: -38 102<-424.779 -174.674> 73 83<93 302.365> 275 155<409.019 686.943> 875 94<-297.631 -77.3819>
LayerCount: 3
Fore
SplineSet
552 297 m 0xfbc0
 428 297 383 371 328 371 c 0
 204 371 156 303 156 254 c 0
 156 188 214 119 292 119 c 0
 428 119 504 161 710 161 c 0
 889 161 969 52 969 -106 c 0
 969 -397 706 -595 362 -595 c 0
 72 -595 -38 -455 -38 -317 c 0
 -38 -126 141 -72 221 -51 c 1
 144 -30 73 56 73 130 c 0
 73 194 93 414 313 414 c 1
 313 414 275 462 275 531 c 0
 275 760 512 905 709 905 c 0xf7c0
 807 905 915 851 944 759 c 1
 944 760 1045 891 1138 891 c 0
 1203 891 1240 846 1240 789 c 0
 1240 744 1212 713 1181 713 c 0
 1113 713 1128 816 1081 816 c 0
 1050 816 970 746 967 686 c 0
 956 472 778 297 552 297 c 0xfbc0
875 -200 m 0
 875 -156 859 -29 697 -29 c 0
 566 -29 356 -54 252 -70 c 0
 133 -89 64 -185 64 -287 c 0
 64 -463 228 -545 408 -545 c 0
 629 -545 875 -410 875 -200 c 0
696 852 m 0
 538 852 430 664 430 518 c 0
 430 410 490 348 558 348 c 0
 706 348 812 552 812 700 c 0
 812 785 777 852 696 852 c 0
EndSplineSet
Validated: 1
EndChar

StartChar: h
Encoding: 104 104 17
Width: 1289
VWidth: 0
Flags: HW
HStem: -40 67<797.5 996.093> 0 21G<116 214.5> 822 61<719.862 891.239> 1418 54<299.284 520>
VStem: 96 158<0 170.757> 696 183<27.3273 201.046> 908 172<557.269 814.372>
LayerCount: 3
Fore
SplineSet
1080 697 m 0
 1080 553 879 142 879 68 c 0
 879 45 890 27 927 27 c 0
 1034 27 1157 186 1163 194 c 0
 1170 204 1172 204 1180 204 c 0
 1189 204 1205 194 1205 179 c 0
 1205 158 1078 -40 832 -40 c 0xbe
 763 -40 696 -18 696 44 c 0
 696 122 908 632 908 726 c 0
 908 785 885 822 825 822 c 0
 586 822 403 520 374 417 c 0
 336 285 272 90 254 36 c 0
 242 0 215 0 214 0 c 2
 129 0 l 2
 105 0 96 9 96 21 c 0
 96 72 211 371 520 1418 c 1
 319 1418 l 2
 301 1418 299 1426 299 1434 c 2
 299 1439 l 2
 299 1470 315 1472 328 1472 c 2
 647 1472 l 2
 667 1472 676 1469 676 1457 c 0
 676 1447 671 1431 664 1409 c 2
 426 616 l 1x7e
 428 618 621 883 862 883 c 0
 986 883 1080 809 1080 697 c 0
EndSplineSet
EndChar

StartChar: i
Encoding: 105 105 18
Width: 603
VWidth: 0
Flags: HWO
HStem: 499 259<362.212 549.659>
VStem: 328 254<531.492 722.946>
LayerCount: 3
Fore
SplineSet
393.25 1332 m 0
 393.25 1386.15039062 437.900390625 1430.79980469 493 1430.79980469 c 0
 548.099609375 1430.79980469 592.75 1386.15039062 592.75 1332 c 0
 592.75 1277.84960938 548.099609375 1233.20019531 493 1233.20019531 c 0
 437.900390625 1233.20019531 393.25 1277.84960938 393.25 1332 c 0
571 212 m 0
 571 179 402 -36 199 -36 c 0
 123 -36 95 1 95 64 c 0
 95 106 124 188 314 818 c 1
 121 818 l 2
 102 818 99 832 99 844 c 0
 99 868 111 872 123 872 c 2
 462 872 l 2
 480 872 487 870 487 857 c 0
 487 807 262 196 262 78 c 0
 262 50 276 40 299 40 c 0
 339 40 424 80 525 214 c 0
 536 228 542 233 549 233 c 0
 560 233 571 221 571 212 c 0
EndSplineSet
EndChar

StartChar: j
Encoding: 106 106 19
Width: 758
VWidth: 0
Flags: W
HStem: 499 259<362.212 549.659>
VStem: 328 254<531.492 722.946>
LayerCount: 3
Fore
SplineSet
328 622 m 0
 328 704 392 758 464 758 c 0
 531 758 582 698 582 631 c 0
 582 559 527 499 455 499 c 0
 387 499 328 554 328 622 c 0
EndSplineSet
Validated: 1
EndChar

StartChar: k
Encoding: 107 107 20
Width: 758
VWidth: 0
Flags: W
HStem: 499 259<362.212 549.659>
VStem: 328 254<531.492 722.946>
LayerCount: 3
Fore
SplineSet
328 622 m 0
 328 704 392 758 464 758 c 0
 531 758 582 698 582 631 c 0
 582 559 527 499 455 499 c 0
 387 499 328 554 328 622 c 0
EndSplineSet
Validated: 1
EndChar

StartChar: l
Encoding: 108 108 21
Width: 758
VWidth: 0
Flags: W
HStem: 499 259<362.212 549.659>
VStem: 328 254<531.492 722.946>
LayerCount: 3
Fore
SplineSet
328 622 m 0
 328 704 392 758 464 758 c 0
 531 758 582 698 582 631 c 0
 582 559 527 499 455 499 c 0
 387 499 328 554 328 622 c 0
EndSplineSet
Validated: 1
EndChar

StartChar: m
Encoding: 109 109 22
Width: 758
VWidth: 0
Flags: W
HStem: 499 259<362.212 549.659>
VStem: 328 254<531.492 722.946>
LayerCount: 3
Fore
SplineSet
328 622 m 0
 328 704 392 758 464 758 c 0
 531 758 582 698 582 631 c 0
 582 559 527 499 455 499 c 0
 387 499 328 554 328 622 c 0
EndSplineSet
Validated: 1
EndChar

StartChar: n
Encoding: 110 110 23
Width: 758
VWidth: 0
Flags: W
HStem: 499 259<362.212 549.659>
VStem: 328 254<531.492 722.946>
LayerCount: 3
Fore
SplineSet
328 622 m 0
 328 704 392 758 464 758 c 0
 531 758 582 698 582 631 c 0
 582 559 527 499 455 499 c 0
 387 499 328 554 328 622 c 0
EndSplineSet
Validated: 1
EndChar

StartChar: o
Encoding: 111 111 24
Width: 758
VWidth: 0
Flags: W
HStem: 499 259<362.212 549.659>
VStem: 328 254<531.492 722.946>
LayerCount: 3
Fore
SplineSet
328 622 m 0
 328 704 392 758 464 758 c 0
 531 758 582 698 582 631 c 0
 582 559 527 499 455 499 c 0
 387 499 328 554 328 622 c 0
EndSplineSet
Validated: 1
EndChar

StartChar: p
Encoding: 112 112 25
Width: 758
VWidth: 0
Flags: W
HStem: 499 259<362.212 549.659>
VStem: 328 254<531.492 722.946>
LayerCount: 3
Fore
SplineSet
328 622 m 0
 328 704 392 758 464 758 c 0
 531 758 582 698 582 631 c 0
 582 559 527 499 455 499 c 0
 387 499 328 554 328 622 c 0
EndSplineSet
Validated: 1
EndChar

StartChar: q
Encoding: 113 113 26
Width: 758
VWidth: 0
Flags: W
HStem: 499 259<362.212 549.659>
VStem: 328 254<531.492 722.946>
LayerCount: 3
Fore
SplineSet
328 622 m 0
 328 704 392 758 464 758 c 0
 531 758 582 698 582 631 c 0
 582 559 527 499 455 499 c 0
 387 499 328 554 328 622 c 0
EndSplineSet
Validated: 1
EndChar

StartChar: r
Encoding: 114 114 27
Width: 946
VWidth: 0
Flags: W
HStem: 0 21G<105.5 215.5> 632 243<772.048 908.978> 818 54<103.001 347>
VStem: 755 180<655.363 795.972>
LayerCount: 3
Fore
SplineSet
71 25 m 0xd0
 71 36 77 51 84 73 c 2
 347 818 l 1
 127 818 l 2
 103 818 103 831 103 844 c 0
 103 862 103 872 139 872 c 2
 500 872 l 2xb0
 530 872 530 867 530 860 c 0
 530 852 511 809 455 646 c 1
 516 716 719 875 841 875 c 0
 901 875 935 835 935 770 c 0
 935 680 884 632 832 632 c 0
 791 632 755 662 755 722 c 0
 755 758 768 796 768 796 c 1
 754 786 486 686 367 391 c 0
 213 8 261 0 170 0 c 2
 127 0 l 2
 84 0 71 0 71 25 c 0xd0
EndSplineSet
Validated: 1
EndChar

StartChar: s
Encoding: 115 115 28
Width: 781
VWidth: 0
Flags: W
HStem: -38 62<249.723 448.52> 842 57<385.514 556.205>
VStem: 40 186<72.7068 273.996> 229 113<519 761.682> 526 145<128.269 377.96>
LayerCount: 3
Fore
SplineSet
40 192 m 0
 40 251 86 290 133 290 c 0
 170 290 226 270 226 139 c 0
 226 92 231 24 340 24 c 0
 425 24 526 82 526 167 c 0
 526 333 229 418 229 620 c 0
 229 697 299 899 504 899 c 0
 628 899 745 831 745 725 c 0
 745 685 724 653 692 653 c 0
 568 653 635 842 478 842 c 0
 412 842 342 806 342 748 c 0
 342 640 671 483 671 271 c 0
 671 131 537 -38 329 -38 c 0
 147 -38 40 86 40 192 c 0
EndSplineSet
Validated: 1
EndChar

